<svg xmlns:svg="http://www.w3.org/2000/svg" xmlns="http://www.w3.org/2000/svg" version="1.0" width="956.69287" height="813.18896" id="svg2" viewBox="-500 -400 2000 1000">
  <defs id="defs4"/>
  <g transform="translate(-463.945,326.07655)" id="layer1">
    <g transform="translate(35.433036,35.515117)" id="g2648">
      <path d="M 1047.4326,161.21262 L 1015.1263,193.6282 L 982.67429,161.13983 L 966.45558,112.36723 L 917.77034,96.08301 L 917.8213,63.645595 L 885.36205,63.696551 L 869.20158,144.8556 L 885.4494,193.59908 L 810.78366,225.99282 L 788.11532,193.52628 L 804.29763,161.03791 L 804.29763,128.67329 L 755.69974,128.67329 L 690.9705,193.6282 L 642.28526,177.32214 L 642.28526,144.8556 L 642.28526,112.36723 L 561.21357,99.526209 L 499.37429,130.68243 L 463.945,112.94231 L 463.95956,47.354093 L 496.37513,31.208181 L 626.13207,-33.754002 L 642.28526,-17.549854 L 690.87587,-66.235094 L 690.87587,-98.701626 L 755.69974,-163.66381 L 788.11532,-228.72063 L 836.786,-309.86512 L 917.77034,-326.07655 L 950.18592,-326.07655 L 950.18592,-293.67553 L 1015.0316,-228.72063 L 1015.0316,-163.75116 L 1112.2711,-66.235094 L 1209.5105,-1.2656314 L 1258.1739,14.931237 L 1274.3271,63.594639 L 1339.1728,96.184922 L 1306.7427,128.67329 L 1274.3198,128.67329 L 1274.3781,96.133966 L 1225.7584,79.9007 L 1144.6721,-1.3529853 L 1079.8409,-33.746723 L 1015.0316,-131.26279 L 982.6015,-163.75116 L 998.84204,-212.4364 L 950.21504,-261.14348 L 917.77034,-228.63327 L 917.77034,-163.66381 L 885.4494,-131.19 L 950.18592,-66.322448 L 917.77034,-33.841356 L 982.6015,31.208181 L 982.6015,63.696551 L 1015.068,128.67329 L 1047.4326,128.67329 L 1079.8409,96.184922 L 1063.6222,79.951656 L 1047.4326,31.208181 L 1079.8409,31.208181 L 1112.2565,96.184922 L 1144.6721,128.57138 L 1047.4326,161.21262 z" id="path2452" style="fill:#193989;fill-opacity:1;fill-rule:nonzero;stroke:none"/>
      <path d="M 464.06147,413.21406 L 464.06147,243.65286 L 499.5126,225.92002 L 499.5126,413.21406 L 464.06147,413.21406 z" id="path2456" style="fill:#193989;fill-opacity:1;fill-rule:nonzero;stroke:none"/>
      <path d="M 647.14069,413.21406 L 611.69684,413.21406 L 611.69684,340.27355 C 611.69684,316.14932 603.47829,308.93534 588.84652,308.93534 C 574.1929,308.93534 565.72685,316.14932 565.72685,339.49465 L 565.72685,413.21406 L 530.28301,413.21406 L 530.28301,278.38332 L 565.72685,278.38332 L 565.72685,287.38077 C 571.8853,280.9457 583.19035,275.54432 597.31257,275.54432 C 631.72272,275.54432 647.14069,299.1881 647.14069,337.17977 L 647.14069,413.21406 z" id="path2460" style="fill:#193989;fill-opacity:1;fill-rule:nonzero;stroke:none"/>
      <path d="M 792.30103,278.38332 L 743.76866,413.21406 L 707.29112,413.21406 L 658.75875,278.38332 L 697.79867,278.38332 L 717.56977,340.79768 C 720.83826,351.07632 724.50712,363.88823 726.05037,370.3233 C 727.58635,363.64072 731.18969,351.30198 734.51642,340.79768 L 754.2948,278.38332 L 792.30103,278.38332 z" id="path2464" style="fill:#193989;fill-opacity:1;fill-rule:nonzero;stroke:none"/>
      <path d="M 888.25928,330.54815 C 886.45397,317.55426 878.11167,306.40208 861.03399,306.40208 C 847.66884,306.40208 837.28101,316.92823 834.98069,330.54815 L 888.25928,330.54815 z M 865.51815,416.05306 C 826.18706,416.05306 798.10278,388.5657 798.10278,345.92244 C 798.10278,304.58949 826.86405,275.56615 862.31518,275.56615 C 899.93559,275.56615 923.72497,307.42849 923.72497,345.92244 C 923.72497,351.07632 923.56482,353.01266 923.16445,357.23477 L 834.42744,357.23477 C 836.88791,374.84386 851.52697,382.66203 865.51815,382.66203 C 873.48192,382.66203 883.75328,379.56825 890.596,370.72367 L 917.80674,390.6258 C 903.17496,410.6808 879.8078,416.05306 865.51815,416.05306" id="path2468" style="fill:#193989;fill-opacity:1;fill-rule:nonzero;stroke:none"/>
      <path d="M 1000.0504,385.77766 C 1013.3428,385.77766 1021.3066,380.37627 1021.3066,373.86841 C 1021.3066,364.39051 1006.9878,362.7599 1000.429,361.52967 C 973.88066,356.52866 942.7754,351.55677 942.7754,317.35772 C 942.7754,291.85038 968.96701,275.59527 999.03131,275.59527 C 1015.9707,275.59527 1035.4579,282.78013 1048.8085,291.24618 L 1030.668,315.59608 C 1019.5522,310.01999 1006.5874,305.8998 998.49263,305.8998 C 983.08922,305.8998 977.33842,309.93991 977.33842,315.47233 C 977.33842,324.94295 996.70915,326.70458 1006.8349,329.09226 C 1031.476,334.91585 1056.0734,341.8532 1056.0734,372.23052 C 1056.0734,400.37304 1026.8244,416.08218 997.99034,416.08218 C 976.64687,416.08218 955.61642,406.83723 941.23215,397.33749 L 958.7466,373.38796 C 971.48571,379.99774 985.09108,385.77766 1000.0504,385.77766" id="path2472" style="fill:#193989;fill-opacity:1;fill-rule:nonzero;stroke:none"/>
      <path d="M 1141.6438,309.71425 C 1121.7053,309.71425 1107.372,325.99847 1107.372,345.92244 C 1107.372,365.85369 1121.7053,381.88313 1141.6438,381.88313 C 1154.1427,381.88313 1164.4578,375.57181 1170.3905,365.94832 L 1198.8388,386.68031 C 1186.0851,404.47139 1165.2294,416.05306 1141.6438,416.05306 C 1102.8369,416.05306 1071.404,384.72213 1071.404,345.92244 C 1071.404,307.13003 1102.8369,275.56615 1141.6438,275.56615 C 1165.3313,275.56615 1186.2744,287.32981 1198.9989,305.34655 L 1170.5143,326.2023 C 1164.5961,316.30219 1154.2956,309.71425 1141.6438,309.71425" id="path2476" style="fill:#193989;fill-opacity:1;fill-rule:nonzero;stroke:none"/>
      <path d="M 1313.8184,345.92244 C 1313.8184,325.99847 1299.4559,309.71425 1279.532,309.71425 C 1259.5934,309.71425 1245.2601,325.99847 1245.2601,345.92244 C 1245.2601,365.85369 1259.5934,381.88313 1279.532,381.88313 C 1299.4559,381.88313 1313.8184,365.85369 1313.8184,345.92244 M 1349.7718,345.92244 C 1349.7718,384.72213 1318.3171,416.03122 1279.532,416.03122 C 1240.7323,416.03122 1209.2849,384.72213 1209.2849,345.92244 C 1209.2849,307.13003 1240.7323,275.54432 1279.532,275.54432 C 1318.3171,275.54432 1349.7718,307.13003 1349.7718,345.92244" id="path2480" style="fill:#193989;fill-opacity:1;fill-rule:nonzero;stroke:none"/>
    </g>
  </g>
</svg>
